<svg xmlns="http://www.w3.org/2000/svg" viewBox="0 0 256 256" role="img" aria-labelledby="attune-contour-title">
  <title id="attune-contour-title">Attune contour logo concept</title>
  <g fill="none" stroke="#f1ead8" stroke-linecap="round" stroke-linejoin="round" stroke-width="3.4">
    <path d="M62 190c-30-34-11-70 23-94 24-17 29-42 61-48 45-8 82 16 75 54-5 28-22 35-5 61 27 42-26 70-66 55-34-13-61 4-88-28Z" />
    <path d="M68 184c-25-29-9-60 21-81 22-16 28-37 58-43 39-7 71 13 65 46-5 25-20 31-4 54 23 36-22 60-57 47-31-11-59 5-83-23Z" />
    <path d="M75 178c-21-24-7-50 19-69 20-14 27-31 53-36 33-6 60 11 55 39-4 21-18 26-5 46 20 30-19 50-49 40-28-10-53 4-73-20Z" />
    <path d="M82 172c-16-19-5-41 18-57 17-12 25-26 47-30 27-5 50 9 46 32-4 18-16 22-4 39 16 25-16 41-41 32-24-8-49 5-66-16Z" />
  </g>
</svg>
